<svg width="512" height="512" viewBox="0 0 512 512" fill="none" xmlns="http://www.w3.org/2000/svg">
<g clip-path="url(#clip0_6_182)">
<circle cx="256" cy="256" r="256" fill="#3D4451"/>
<g clip-path="url(#clip1_6_182)">
<path d="M356.536 391.468C313.084 391.468 285.394 343.756 253.444 288.802C250.462 283.264 247.48 277.726 244.072 272.188C240.664 266.65 237.682 261.112 234.7 256C207.436 209.14 184.006 168.67 158.446 168.67C151.204 168.67 123.94 176.338 72.82 271.762L45.556 257.278C109.03 137.572 146.092 137.572 158.446 137.572C201.898 137.572 229.588 185.284 261.538 240.238C264.52 245.776 267.502 251.314 270.91 256.852C274.318 262.39 277.3 267.928 280.282 273.04C307.546 319.9 330.976 360.37 356.536 360.37C363.778 360.37 391.042 352.702 442.162 257.278L469.426 271.762C405.952 391.468 368.89 391.468 356.536 391.468Z" fill="#8D47E7"/>
</g>
</g>
<defs>
<clipPath id="clip0_6_182">
<rect width="512" height="512" fill="white"/>
</clipPath>
<clipPath id="clip1_6_182">
<rect width="426" height="426" fill="white" transform="translate(43 43)"/>
</clipPath>
</defs>
</svg>
