<svg width="1440" height="1024" viewBox="0 0 1440 1024" fill="none" xmlns="http://www.w3.org/2000/svg">
<rect width="1440" height="1024" fill="#280A4D"/>
<path d="M0 646L26.7 651.3C53.3 657 107 667 160 672.7C213.3 678 267 678 320 694C373.3 710 427 742 480 763.3C533.3 785 587 795 640 779.3C693.3 763 747 721 800 683.3C853.3 646 907 614 960 646C1013.3 678 1067 774 1120 779.3C1173.3 785 1227 699 1280 672.7C1333.3 646 1387 678 1413 694L1440 710V870H1413.3C1386.7 870 1333 870 1280 870C1226.7 870 1173 870 1120 870C1066.7 870 1013 870 960 870C906.7 870 853 870 800 870C746.7 870 693 870 640 870C586.7 870 533 870 480 870C426.7 870 373 870 320 870C266.7 870 213 870 160 870C106.7 870 53 870 27 870H0V646Z" fill="#220941"/>
<path d="M0 723L26.7 728.3C53.3 734 107 744 160 749.7C213.3 755 267 755 320 771C373.3 787 427 819 480 840.3C533.3 862 587 872 640 856.3C693.3 840 747 798 800 760.3C853.3 723 907 691 960 723C1013.3 755 1067 851 1120 856.3C1173.3 862 1227 776 1280 749.7C1333.3 723 1387 755 1413 771L1440 787V947H1413.3C1386.7 947 1333 947 1280 947C1226.7 947 1173 947 1120 947C1066.7 947 1013 947 960 947C906.7 947 853 947 800 947C746.7 947 693 947 640 947C586.7 947 533 947 480 947C426.7 947 373 947 320 947C266.7 947 213 947 160 947C106.7 947 53 947 27 947H0V723Z" fill="#1B0734"/>
<path d="M0 800L26.7 805.3C53.3 811 107 821 160 826.7C213.3 832 267 832 320 848C373.3 864 427 896 480 917.3C533.3 939 587 949 640 933.3C693.3 917 747 875 800 837.3C853.3 800 907 768 960 800C1013.3 832 1067 928 1120 933.3C1173.3 939 1227 853 1280 826.7C1333.3 800 1387 832 1413 848L1440 864V1024H1413.3C1386.7 1024 1333 1024 1280 1024C1226.7 1024 1173 1024 1120 1024C1066.7 1024 1013 1024 960 1024C906.7 1024 853 1024 800 1024C746.7 1024 693 1024 640 1024C586.7 1024 533 1024 480 1024C426.7 1024 373 1024 320 1024C266.7 1024 213 1024 160 1024C106.7 1024 53 1024 27 1024H0V800Z" fill="#140526"/>
</svg>
