<svg width="285" height="52" viewBox="0 0 285 52" fill="none" xmlns="http://www.w3.org/2000/svg">
<path d="M24.344 17.016C26.136 17.016 27.5867 17.2507 28.696 17.72C29.848 18.1467 30.744 18.744 31.384 19.512C32.0667 20.3227 32.5573 21.368 32.856 22.648C33.1973 23.928 33.368 25.656 33.368 27.832V45.048C33.368 46.84 33.6667 48.056 34.264 48.696C34.904 49.336 35.9707 49.656 37.464 49.656V51C36.6533 50.9573 35.4373 50.9147 33.816 50.872C32.1947 50.7867 30.5947 50.744 29.016 50.744C27.3947 50.744 25.7947 50.7867 24.216 50.872C22.68 50.9147 21.5067 50.9573 20.696 51V49.656C21.976 49.656 22.872 49.336 23.384 48.696C23.896 48.056 24.152 46.84 24.152 45.048V25.144C24.152 24.0773 24.0453 23.16 23.832 22.392C23.6187 21.5813 23.2347 20.9627 22.68 20.536C22.1253 20.0667 21.2933 19.832 20.184 19.832C19.032 19.832 17.9653 20.152 16.984 20.792C16.0453 21.432 15.2773 22.328 14.68 23.48C14.1253 24.5893 13.848 25.848 13.848 27.256V45.048C13.848 46.84 14.104 48.056 14.616 48.696C15.1707 49.336 16.0667 49.656 17.304 49.656V51C16.536 50.9573 15.4053 50.9147 13.912 50.872C12.4613 50.7867 10.9467 50.744 9.368 50.744C7.74667 50.744 6.08267 50.7867 4.376 50.872C2.66933 50.9147 1.38933 50.9573 0.536 51V49.656C2.02933 49.656 3.07467 49.336 3.672 48.696C4.312 48.056 4.632 46.84 4.632 45.048V24.888C4.632 22.968 4.33333 21.56 3.736 20.664C3.18133 19.7253 2.11467 19.256 0.536 19.256V17.912C1.90133 18.04 3.224 18.104 4.504 18.104C6.296 18.104 7.96 18.04 9.496 17.912C11.0747 17.7413 12.5253 17.5067 13.848 17.208V22.968C14.9147 20.792 16.3653 19.256 18.2 18.36C20.0347 17.464 22.0827 17.016 24.344 17.016ZM56.3605 17.016C59.4752 17.016 62.2058 17.592 64.5525 18.744C66.8992 19.896 68.7338 21.752 70.0565 24.312C71.3792 26.872 72.0405 30.264 72.0405 34.488C72.0405 38.712 71.3792 42.104 70.0565 44.664C68.7338 47.1813 66.8992 49.016 64.5525 50.168C62.2058 51.32 59.4752 51.896 56.3605 51.896C53.3312 51.896 50.6218 51.32 48.2325 50.168C45.8858 49.016 44.0298 47.1813 42.6645 44.664C41.3418 42.104 40.6805 38.712 40.6805 34.488C40.6805 30.264 41.3418 26.872 42.6645 24.312C44.0298 21.752 45.8858 19.896 48.2325 18.744C50.6218 17.592 53.3312 17.016 56.3605 17.016ZM56.3605 18.296C54.6538 18.296 53.2245 19.576 52.0725 22.136C50.9205 24.6533 50.3445 28.7707 50.3445 34.488C50.3445 40.2053 50.9205 44.3227 52.0725 46.84C53.2245 49.3573 54.6538 50.616 56.3605 50.616C58.1098 50.616 59.5392 49.3573 60.6485 46.84C61.8005 44.3227 62.3765 40.2053 62.3765 34.488C62.3765 28.7707 61.8005 24.6533 60.6485 22.136C59.5392 19.576 58.1098 18.296 56.3605 18.296ZM84.356 1.4C86.148 1.4 87.556 1.848 88.58 2.744C89.6467 3.59733 90.18 4.792 90.18 6.328C90.18 7.864 89.6467 9.08 88.58 9.976C87.556 10.8293 86.148 11.256 84.356 11.256C82.564 11.256 81.1347 10.8293 80.068 9.976C79.044 9.08 78.532 7.864 78.532 6.328C78.532 4.792 79.044 3.59733 80.068 2.744C81.1347 1.848 82.564 1.4 84.356 1.4ZM89.348 17.208V45.048C89.348 46.84 89.6467 48.056 90.244 48.696C90.884 49.336 91.9507 49.656 93.444 49.656V51C92.676 50.9573 91.4813 50.9147 89.86 50.872C88.2387 50.7867 86.596 50.744 84.932 50.744C83.268 50.744 81.5827 50.7867 79.876 50.872C78.1693 50.9147 76.8893 50.9573 76.036 51V49.656C77.5293 49.656 78.5747 49.336 79.172 48.696C79.812 48.056 80.132 46.84 80.132 45.048V24.888C80.132 22.968 79.8333 21.56 79.236 20.664C78.6813 19.7253 77.6147 19.256 76.036 19.256V17.912C77.4013 18.04 78.724 18.104 80.004 18.104C81.796 18.104 83.46 18.04 84.996 17.912C86.5747 17.7413 88.0253 17.5067 89.348 17.208ZM108.896 17.016C110.688 17.016 112.245 17.2507 113.568 17.72C114.933 18.1467 115.914 18.5733 116.512 19C117.962 19.9813 118.858 19.3413 119.2 17.08H120.544C120.458 18.2747 120.394 19.7467 120.352 21.496C120.309 23.2027 120.288 25.4853 120.288 28.344H118.944C118.73 26.7653 118.325 25.208 117.728 23.672C117.13 22.136 116.256 20.8773 115.104 19.896C113.994 18.9147 112.544 18.424 110.752 18.424C109.514 18.424 108.469 18.7867 107.616 19.512C106.762 20.1947 106.336 21.1973 106.336 22.52C106.336 23.8 106.72 24.9307 107.488 25.912C108.256 26.8507 109.237 27.768 110.432 28.664C111.669 29.5173 112.949 30.4347 114.272 31.416C115.68 32.4827 116.96 33.5493 118.112 34.616C119.264 35.64 120.181 36.7707 120.864 38.008C121.546 39.2453 121.888 40.7173 121.888 42.424C121.888 44.344 121.333 46.0293 120.224 47.48C119.114 48.888 117.642 49.976 115.808 50.744C114.016 51.512 112.01 51.896 109.792 51.896C108.512 51.896 107.36 51.768 106.336 51.512C105.354 51.256 104.501 50.936 103.776 50.552C103.221 50.296 102.688 50.0613 102.176 49.848C101.706 49.592 101.258 49.3787 100.832 49.208C100.405 49.08 100.021 49.2293 99.6795 49.656C99.3808 50.0827 99.1462 50.68 98.9755 51.448H97.6315C97.7168 50.0827 97.7808 48.4187 97.8235 46.456C97.8662 44.4933 97.8875 41.8907 97.8875 38.648H99.2315C99.4875 40.952 99.9568 43 100.64 44.792C101.322 46.5413 102.24 47.928 103.392 48.952C104.586 49.9333 106.08 50.424 107.872 50.424C108.597 50.424 109.301 50.2747 109.984 49.976C110.666 49.6773 111.221 49.1867 111.648 48.504C112.117 47.8213 112.352 46.9467 112.352 45.88C112.352 44.0027 111.733 42.4453 110.496 41.208C109.301 39.9707 107.765 38.6267 105.888 37.176C104.522 36.0667 103.221 34.9787 101.984 33.912C100.789 32.8027 99.8075 31.608 99.0395 30.328C98.2715 29.0053 97.8875 27.512 97.8875 25.848C97.8875 23.928 98.3995 22.3067 99.4235 20.984C100.448 19.6613 101.792 18.68 103.456 18.04C105.162 17.3573 106.976 17.016 108.896 17.016ZM142.298 17.016C146.053 17.016 148.997 18.1253 151.13 20.344C153.263 22.5627 154.33 26.1893 154.33 31.224H133.274L133.146 30.008H146.266C146.309 27.9173 146.181 25.9973 145.882 24.248C145.583 22.456 145.114 21.0267 144.474 19.96C143.834 18.8933 142.981 18.36 141.914 18.36C140.421 18.36 139.141 19.2987 138.074 21.176C137.05 23.0533 136.431 26.168 136.218 30.52L136.41 30.904C136.367 31.416 136.325 31.9493 136.282 32.504C136.282 33.0587 136.282 33.6347 136.282 34.232C136.282 37.176 136.687 39.5653 137.498 41.4C138.351 43.2347 139.418 44.5787 140.698 45.432C141.978 46.2427 143.279 46.648 144.602 46.648C145.498 46.648 146.415 46.52 147.354 46.264C148.335 45.9653 149.317 45.4533 150.298 44.728C151.279 43.96 152.197 42.8933 153.05 41.528L154.202 41.912C153.69 43.5333 152.879 45.112 151.77 46.648C150.661 48.184 149.253 49.4427 147.546 50.424C145.839 51.4053 143.791 51.896 141.402 51.896C138.501 51.896 135.941 51.2773 133.722 50.04C131.503 48.8027 129.754 46.9253 128.474 44.408C127.237 41.8907 126.618 38.6907 126.618 34.808C126.618 30.84 127.279 27.5333 128.602 24.888C129.967 22.2427 131.823 20.28 134.17 19C136.559 17.6773 139.269 17.016 142.298 17.016ZM171.028 7.416V17.912H178.58V19.192H171.028V45.048C171.028 46.328 171.263 47.2453 171.732 47.8C172.201 48.312 172.905 48.568 173.844 48.568C174.612 48.568 175.38 48.2907 176.148 47.736C176.916 47.1387 177.599 46.136 178.196 44.728L179.284 45.304C178.601 47.224 177.556 48.8027 176.148 50.04C174.783 51.2773 172.905 51.896 170.516 51.896C169.108 51.896 167.871 51.704 166.804 51.32C165.737 50.9787 164.841 50.4453 164.116 49.72C163.177 48.7813 162.559 47.6293 162.26 46.264C161.961 44.856 161.812 43.0427 161.812 40.824V19.192H156.436V17.912H161.812V9.464C163.604 9.464 165.247 9.31466 166.74 9.016C168.276 8.67466 169.705 8.14133 171.028 7.416ZM196.798 17.016C199.913 17.016 202.643 17.592 204.99 18.744C207.337 19.896 209.171 21.752 210.494 24.312C211.817 26.872 212.478 30.264 212.478 34.488C212.478 38.712 211.817 42.104 210.494 44.664C209.171 47.1813 207.337 49.016 204.99 50.168C202.643 51.32 199.913 51.896 196.798 51.896C193.769 51.896 191.059 51.32 188.67 50.168C186.323 49.016 184.467 47.1813 183.102 44.664C181.779 42.104 181.118 38.712 181.118 34.488C181.118 30.264 181.779 26.872 183.102 24.312C184.467 21.752 186.323 19.896 188.67 18.744C191.059 17.592 193.769 17.016 196.798 17.016ZM196.798 18.296C195.091 18.296 193.662 19.576 192.51 22.136C191.358 24.6533 190.782 28.7707 190.782 34.488C190.782 40.2053 191.358 44.3227 192.51 46.84C193.662 49.3573 195.091 50.616 196.798 50.616C198.547 50.616 199.977 49.3573 201.086 46.84C202.238 44.3227 202.814 40.2053 202.814 34.488C202.814 28.7707 202.238 24.6533 201.086 22.136C199.977 19.576 198.547 18.296 196.798 18.296ZM232.986 17.016C236.1 17.016 238.831 17.592 241.178 18.744C243.524 19.896 245.359 21.752 246.682 24.312C248.004 26.872 248.666 30.264 248.666 34.488C248.666 38.712 248.004 42.104 246.682 44.664C245.359 47.1813 243.524 49.016 241.178 50.168C238.831 51.32 236.1 51.896 232.986 51.896C229.956 51.896 227.247 51.32 224.858 50.168C222.511 49.016 220.655 47.1813 219.29 44.664C217.967 42.104 217.306 38.712 217.306 34.488C217.306 30.264 217.967 26.872 219.29 24.312C220.655 21.752 222.511 19.896 224.858 18.744C227.247 17.592 229.956 17.016 232.986 17.016ZM232.986 18.296C231.279 18.296 229.85 19.576 228.698 22.136C227.546 24.6533 226.97 28.7707 226.97 34.488C226.97 40.2053 227.546 44.3227 228.698 46.84C229.85 49.3573 231.279 50.616 232.986 50.616C234.735 50.616 236.164 49.3573 237.274 46.84C238.426 44.3227 239.002 40.2053 239.002 34.488C239.002 28.7707 238.426 24.6533 237.274 22.136C236.164 19.576 234.735 18.296 232.986 18.296ZM265.092 0.887997V45.048C265.092 46.84 265.391 48.056 265.988 48.696C266.628 49.336 267.695 49.656 269.188 49.656V51C268.377 50.9573 267.161 50.9147 265.54 50.872C263.919 50.7867 262.276 50.744 260.612 50.744C258.948 50.744 257.263 50.7867 255.556 50.872C253.892 50.9147 252.633 50.9573 251.78 51V49.656C253.273 49.656 254.319 49.336 254.916 48.696C255.556 48.056 255.876 46.84 255.876 45.048V8.568C255.876 6.648 255.577 5.24 254.98 4.344C254.425 3.40533 253.359 2.936 251.78 2.936V1.592C253.145 1.72 254.468 1.784 255.748 1.784C257.497 1.784 259.161 1.72 260.74 1.592C262.319 1.42133 263.769 1.18666 265.092 0.887997ZM279.015 42.04C280.679 42.04 282.002 42.488 282.983 43.384C283.964 44.2373 284.455 45.432 284.455 46.968C284.455 48.504 283.964 49.72 282.983 50.616C282.002 51.4693 280.679 51.896 279.015 51.896C277.351 51.896 276.028 51.4693 275.047 50.616C274.066 49.72 273.575 48.504 273.575 46.968C273.575 45.432 274.066 44.2373 275.047 43.384C276.028 42.488 277.351 42.04 279.015 42.04Z" fill="#8D47E7"/>
</svg>
