<svg width="240" height="64" viewBox="0 0 240 64" fill="none" xmlns="http://www.w3.org/2000/svg">
<path d="M6.736 50.104C7.07733 50.2747 7.44 50.4027 7.824 50.488C8.208 50.5307 8.67733 50.552 9.232 50.552C10.8107 50.552 12.0907 50.0827 13.072 49.144C14.096 48.1627 14.608 46.7973 14.608 45.048C14.608 43.64 14.3093 42.2107 13.712 40.76C13.1147 39.2667 12.2187 37.6453 11.024 35.896C10.0427 34.36 9.12533 32.8667 8.272 31.416C7.46133 29.9653 7.056 28.3013 7.056 26.424C7.056 24.5893 7.52533 22.968 8.464 21.56C9.40267 20.152 10.7253 19.0427 12.432 18.232C14.1813 17.4213 16.272 17.016 18.704 17.016C20.2827 17.016 21.7973 17.208 23.248 17.592C24.7413 17.976 25.9787 18.6373 26.96 19.576C27.9413 20.5147 28.432 21.88 28.432 23.672C28.432 24.312 28.2827 25.016 27.984 25.784C27.728 26.552 27.3013 27.192 26.704 27.704C26.1493 28.1733 25.424 28.408 24.528 28.408C23.4613 28.408 22.608 28.024 21.968 27.256C21.328 26.4453 21.008 25.4 21.008 24.12C21.008 22.968 21.2 21.944 21.584 21.048C22.0107 20.1093 22.48 19.3627 22.992 18.808C22.4373 18.4667 21.6907 18.296 20.752 18.296C19.216 18.296 18 18.7653 17.104 19.704C16.2507 20.6427 15.8027 21.9867 15.76 23.736C15.76 24.7173 15.9307 25.656 16.272 26.552C16.6133 27.4053 17.0827 28.28 17.68 29.176C18.2773 30.072 18.9173 31.0747 19.6 32.184C20.88 34.2747 21.8187 36.0667 22.416 37.56C23.056 39.0533 23.376 40.568 23.376 42.104C23.376 43.9387 22.8853 45.6027 21.904 47.096C20.9653 48.5467 19.5787 49.72 17.744 50.616C15.952 51.4693 13.8187 51.896 11.344 51.896C9.552 51.896 7.84533 51.6613 6.224 51.192C4.60267 50.7227 3.28 49.9547 2.256 48.888C1.27467 47.7787 0.784 46.3067 0.784 44.472C0.784 43.2773 1.104 42.2107 1.744 41.272C2.34133 40.3333 3.216 39.864 4.368 39.864C5.52 39.864 6.416 40.3547 7.056 41.336C7.696 42.2747 8.016 43.448 8.016 44.856C8.016 45.9653 7.84533 46.968 7.504 47.864C7.20533 48.76 6.94933 49.5067 6.736 50.104ZM54.603 17.912L54.411 19.192H32.203L32.523 17.912H54.603ZM39.371 45.56C39.0723 46.6693 39.0937 47.48 39.435 47.992C39.819 48.504 40.3737 48.76 41.099 48.76C41.995 48.76 42.891 48.312 43.787 47.416C44.683 46.52 45.4723 45.1333 46.155 43.256L47.115 40.632H48.331L47.051 44.344C46.1977 46.904 44.939 48.8027 43.275 50.04C41.6537 51.2773 39.7123 51.896 37.451 51.896C35.4883 51.896 33.9737 51.448 32.907 50.552C31.8403 49.656 31.2003 48.44 30.987 46.904C30.8163 45.3253 30.987 43.5973 31.499 41.72L41.099 8.376C42.9337 8.33333 44.5977 8.248 46.091 8.12C47.5843 7.992 49.0137 7.77866 50.379 7.48L39.371 45.56ZM76.5895 28.536C75.0108 33.2293 73.4962 37.112 72.0455 40.184C70.5948 43.2133 69.1655 45.5813 67.7575 47.288C66.3922 48.952 64.9842 50.1467 63.5335 50.872C62.0828 51.5547 60.5468 51.896 58.9255 51.896C57.1335 51.896 55.7468 51.512 54.7655 50.744C53.8268 49.976 53.2935 48.8667 53.1655 47.416C53.0802 45.9653 53.3575 44.2373 53.9975 42.232L60.2055 23.352C60.6322 22.1147 60.7175 21.2827 60.4615 20.856C60.2482 20.3867 59.8855 20.152 59.3735 20.152C58.8188 20.152 58.2002 20.472 57.5175 21.112C56.8348 21.7093 56.1095 23.0747 55.3415 25.208L54.1895 28.28H52.9735L54.5735 23.608C55.2135 21.816 56.0028 20.4507 56.9415 19.512C57.9228 18.5733 58.9468 17.9333 60.0135 17.592C61.1228 17.208 62.1682 17.016 63.1495 17.016C65.0695 17.016 66.4988 17.4427 67.4375 18.296C68.3762 19.1067 68.8882 20.28 68.9735 21.816C69.0588 23.3093 68.7602 25.1013 68.0775 27.192L62.3175 44.472C61.3788 47.288 61.5922 48.696 62.9575 48.696C63.7682 48.696 64.6855 48.1627 65.7095 47.096C66.7335 46.0293 67.8002 44.5573 68.9095 42.68C70.0615 40.8027 71.1922 38.6053 72.3015 36.088C73.4108 33.5707 74.4775 30.8613 75.5015 27.96C76.5255 25.0587 77.4215 22.0933 78.1895 19.064L76.5895 28.536ZM79.7255 45.56C79.4268 46.6267 79.2988 47.4373 79.3415 47.992C79.3842 48.504 79.7468 48.76 80.4295 48.76C81.1975 48.76 81.9015 48.3973 82.5415 47.672C83.2242 46.904 83.8855 45.5813 84.5255 43.704L85.7415 40.44H86.9575L85.2295 45.304C84.6748 46.968 83.9282 48.2907 82.9895 49.272C82.0935 50.2107 81.0908 50.872 79.9815 51.256C78.9148 51.6827 77.8055 51.896 76.6535 51.896C75.5015 51.896 74.5202 51.704 73.7095 51.32C72.9415 50.936 72.3442 50.4027 71.9175 49.72C71.4908 48.9093 71.2988 47.9493 71.3415 46.84C71.4268 45.688 71.6402 44.3867 71.9815 42.936L78.4455 17.912C80.1948 17.8693 81.8375 17.784 83.3735 17.656C84.9522 17.528 86.4028 17.3147 87.7255 17.016L79.7255 45.56ZM112.537 18.296C110.958 18.296 109.401 18.9787 107.865 20.344C106.329 21.6667 104.942 23.4587 103.705 25.72C102.51 27.9813 101.55 30.52 100.825 33.336C100.1 36.152 99.737 39.0533 99.737 42.04C99.737 44.3013 100.185 45.944 101.081 46.968C101.977 47.9493 103.15 48.44 104.601 48.44C105.966 48.44 107.353 48.0347 108.761 47.224C110.169 46.4133 111.598 44.9413 113.049 42.808L114.329 43.32C113.476 44.728 112.366 46.0933 111.001 47.416C109.678 48.7387 108.121 49.8267 106.329 50.68C104.58 51.4907 102.596 51.896 100.377 51.896C97.3903 51.896 94.937 51.1067 93.017 49.528C91.097 47.9067 90.137 45.4107 90.137 42.04C90.137 39.9493 90.457 37.752 91.097 35.448C91.7797 33.144 92.7397 30.904 93.977 28.728C95.2143 26.5093 96.729 24.5253 98.521 22.776C100.313 21.0267 102.34 19.64 104.601 18.616C106.862 17.5493 109.316 17.016 111.961 17.016C114.308 17.016 116.185 17.6133 117.593 18.808C119.044 19.96 119.769 21.4107 119.769 23.16C119.769 24.312 119.492 25.4427 118.937 26.552C118.382 27.6187 117.614 28.5147 116.633 29.24C115.694 29.9227 114.628 30.264 113.433 30.264C112.409 30.264 111.534 29.944 110.809 29.304C110.126 28.6213 109.785 27.704 109.785 26.552C109.785 24.8027 110.361 23.3093 111.513 22.072C112.708 20.792 114.073 19.96 115.609 19.576C115.268 19.1493 114.841 18.8293 114.329 18.616C113.86 18.4027 113.262 18.296 112.537 18.296ZM127.122 51H118.098L130.77 8.312C131.197 6.86133 131.154 5.79467 130.642 5.112C130.13 4.42933 128.829 4.088 126.738 4.088L127.122 2.744C130.151 2.70133 132.861 2.46666 135.25 2.04C137.639 1.57066 139.901 0.930665 142.034 0.119999L127.122 51ZM128.722 41.72C130.429 36.8133 132.007 32.76 133.458 29.56C134.951 26.36 136.402 23.8427 137.81 22.008C139.218 20.1733 140.669 18.8933 142.162 18.168C143.655 17.4 145.255 17.016 146.962 17.016C149.053 17.016 150.525 17.464 151.378 18.36C152.274 19.256 152.722 20.4507 152.722 21.944C152.722 23.3947 152.445 24.9733 151.89 26.68L145.618 45.56C145.234 46.712 145.149 47.544 145.362 48.056C145.575 48.5253 145.959 48.76 146.514 48.76C147.069 48.76 147.666 48.4613 148.306 47.864C148.989 47.224 149.714 45.8373 150.482 43.704L151.634 40.632H152.85L151.25 45.304C150.653 47.096 149.863 48.4613 148.882 49.4C147.943 50.3387 146.919 50.9787 145.81 51.32C144.743 51.704 143.698 51.896 142.674 51.896C140.626 51.896 139.133 51.448 138.194 50.552C137.298 49.6133 136.85 48.376 136.85 46.84C136.85 45.2613 137.17 43.5547 137.81 41.72L143.506 24.44C143.762 23.7147 143.933 23.032 144.018 22.392C144.146 21.752 144.125 21.24 143.954 20.856C143.826 20.4293 143.463 20.216 142.866 20.216C142.055 20.216 141.117 20.7493 140.05 21.816C138.983 22.8827 137.874 24.376 136.722 26.296C135.613 28.216 134.482 30.456 133.33 33.016C132.221 35.576 131.133 38.328 130.066 41.272C129.042 44.216 128.125 47.2453 127.314 50.36L128.722 41.72ZM164.838 45.56C164.539 46.6693 164.497 47.48 164.71 47.992C164.966 48.504 165.371 48.76 165.926 48.76C166.395 48.76 166.971 48.4613 167.654 47.864C168.337 47.224 169.041 45.8373 169.766 43.704L170.918 40.632H172.134L170.534 45.304C169.937 47.0533 169.169 48.3973 168.23 49.336C167.291 50.2747 166.289 50.936 165.222 51.32C164.155 51.704 163.089 51.896 162.022 51.896C160.614 51.896 159.483 51.64 158.63 51.128C157.777 50.6587 157.137 49.976 156.71 49.08C156.326 48.1413 156.155 47.0533 156.198 45.816C156.283 44.5787 156.539 43.2133 156.966 41.72L167.014 8.312C167.441 6.86133 167.398 5.79467 166.886 5.112C166.374 4.42933 165.073 4.088 162.982 4.088L163.43 2.744C166.502 2.70133 169.19 2.46666 171.494 2.04C173.841 1.57066 176.102 0.930665 178.278 0.119999L164.838 45.56ZM194.586 47.096L187.738 54.84L182.618 23.416C182.404 22.264 182.191 21.4747 181.978 21.048C181.764 20.6213 181.423 20.408 180.954 20.408C180.527 20.408 180.1 20.7067 179.674 21.304C179.247 21.8587 178.671 23.1387 177.946 25.144L176.794 28.28H175.578L177.178 23.608C178.074 21.0053 179.204 19.256 180.57 18.36C181.935 17.464 183.428 17.016 185.05 17.016C186.799 17.016 188.207 17.5067 189.274 18.488C190.34 19.4267 191.066 21.24 191.45 23.928L194.586 47.096ZM179.29 59.896C181.295 58.9147 183.364 57.5707 185.498 55.864C187.631 54.2 189.807 51.9387 192.026 49.08C194.415 46.136 196.506 42.9573 198.298 39.544C200.09 36.088 201.412 32.7813 202.266 29.624C201.242 29.0267 200.26 28.3227 199.322 27.512C198.426 26.6587 197.7 25.72 197.146 24.696C196.591 23.672 196.335 22.5627 196.378 21.368C196.378 20.0027 196.762 18.936 197.53 18.168C198.298 17.4 199.343 17.016 200.666 17.016C202.159 17.016 203.226 17.528 203.866 18.552C204.548 19.576 204.89 21.0053 204.89 22.84C204.89 24.8453 204.548 27.0427 203.866 29.432C203.183 31.8213 202.244 34.296 201.05 36.856C199.855 39.3733 198.511 41.8267 197.018 44.216C195.524 46.6053 193.946 48.7813 192.282 50.744C190.959 52.408 189.466 53.9653 187.802 55.416C186.18 56.8667 184.452 58.168 182.618 59.32C180.826 60.472 178.948 61.3893 176.986 62.072C176.047 62.4133 175.194 62.648 174.425 62.776C173.657 62.9467 172.996 63.032 172.441 63.032C171.076 63.032 170.009 62.712 169.241 62.072C168.431 61.4747 168.025 60.6 168.025 59.448C168.025 58.3387 168.452 57.4 169.305 56.632C170.116 55.864 171.161 55.48 172.441 55.48C173.807 55.48 175.044 55.864 176.154 56.632C177.306 57.4427 178.351 58.5307 179.29 59.896ZM209.333 19.192L209.717 17.912H230.901L230.517 19.192H209.333ZM232.693 2.104C232.01 2.104 231.391 2.232 230.837 2.488C230.282 2.70133 229.77 3 229.301 3.384C228.746 3.896 228.234 4.62133 227.765 5.56C227.338 6.456 226.933 7.544 226.549 8.824C226.165 10.0613 225.781 11.448 225.397 12.984L212.213 62.136C210.421 62.1787 208.778 62.264 207.285 62.392C205.791 62.52 204.34 62.7333 202.932 63.032L214.901 18.488C215.839 14.8613 216.906 11.8747 218.101 9.528C219.338 7.13866 220.789 5.26133 222.453 3.896C223.69 2.91466 225.055 2.18933 226.549 1.72C228.085 1.208 229.727 0.951996 231.477 0.951996C234.165 0.951996 236.234 1.50666 237.685 2.616C239.178 3.72533 239.925 5.21866 239.925 7.096C239.925 7.94933 239.669 8.824 239.157 9.72C238.687 10.5733 238.005 11.2773 237.109 11.832C236.255 12.3867 235.231 12.664 234.037 12.664C232.799 12.664 231.797 12.3653 231.029 11.768C230.303 11.1707 229.941 10.3173 229.941 9.208C229.941 7.8 230.367 6.54133 231.221 5.432C232.117 4.32266 233.333 3.49066 234.869 2.936C234.655 2.72266 234.357 2.53066 233.973 2.36C233.631 2.18933 233.205 2.104 232.693 2.104ZM227.561 48.056C227.561 46.3493 228.158 44.92 229.353 43.768C230.59 42.616 232.062 42.04 233.769 42.04C235.134 42.04 236.201 42.3813 236.969 43.064C237.737 43.7467 238.121 44.7067 238.121 45.944C238.121 46.968 237.822 47.9493 237.225 48.888C236.67 49.784 235.924 50.5093 234.985 51.064C234.046 51.6187 233.001 51.896 231.849 51.896C230.484 51.896 229.417 51.5547 228.649 50.872C227.924 50.1893 227.561 49.2507 227.561 48.056Z" fill="#A6ADBB"/>
</svg>
